<?xml version="1.0" encoding="utf-8"?>
<!-- Generator: Adobe Illustrator 24.3.0, SVG Export Plug-In . SVG Version: 6.00 Build 0)  -->
<svg version="1.1" id="_x2DC_รรฐ_x5F_1" xmlns="http://www.w3.org/2000/svg" xmlns:xlink="http://www.w3.org/1999/xlink" x="0px"
	 y="0px" viewBox="0 0 2094 983.51" style="enable-background:new 0 0 2094 983.51;" xml:space="preserve">
<style type="text/css">
	.st0{fill:#E6E6E6;}
	.st1{fill:#1F0080;}
	.st2{fill:#FFFFFF;}
	.st3{fill:#E54B00;}
	.st4{fill-rule:evenodd;clip-rule:evenodd;fill:#FFFFFF;}
	.st5{fill-rule:evenodd;clip-rule:evenodd;fill:#231F20;}
	.st6{fill:none;}
	.st7{fill-rule:evenodd;clip-rule:evenodd;fill:#1F0080;}
</style>
<g>
	<g>
		<path class="st1" d="M87.27,832.35c-5.43-4.24-10.47-7.27-14.97-9.03c-4.47-1.74-9.83-2.62-15.94-2.62
			c-7.58,0-14.91,1.44-21.77,4.27c-6.84,2.82-12.99,7.18-18.28,12.95c-5.3,5.78-9.38,12.82-12.14,20.93
			C1.41,866.99,0,875.67,0,884.64c0,8.85,1.51,17.58,4.49,25.95c2.97,8.35,7.22,15.51,12.62,21.29c5.39,5.76,11.44,9.91,17.99,12.32
			c6.61,2.43,14.19,3.66,22.54,3.66c4.08,0,7.86-0.26,11.26-0.79c3.35-0.52,6.62-1.42,9.71-2.68c9.19-3.44,16.12-9.46,20.64-17.91
			c3.87-7.28,5.92-16.3,6.08-26.83H90.46c-0.22,9.04-2.56,16.78-6.98,23.03c-4.75,6.72-11.39,10.12-19.75,10.12
			c-0.65,0-1.54-0.13-2.71-0.39c-1.21-0.27-1.81-0.32-2.1-0.32l-0.21-0.02c-9.13-1.38-16.02-7.3-20.48-17.61
			c-3.38-7.88-5.09-17.68-5.09-29.13l0.01-0.12l0.32-3.51c0.01-11.57,2.11-21.67,6.24-30.02c5.26-10.59,12.91-15.95,22.74-15.95
			h0.96c9.11,0,16.19,3.64,21.05,10.83c3.6,5.33,6.11,13.26,7.46,23.58h13.42v-47.13H92.63l-3.85,10.51L87.27,832.35z"/>
		<path class="st1" d="M200.24,930.62c-1.46-1.47-2.17-4.24-2.17-8.46V889c0-9.46-1.18-16.43-3.52-20.73
			c-2.9-5.32-8.04-8.47-15.73-9.61h-5.03c-5.08,0-9.79,1.2-14,3.56c-4.28,2.4-8.5,5.96-12.55,10.58l-2.44,2.78v-51.14h-35.08v12.19
			h2.78c2.8,0,4.98,0.69,6.47,2.06c1.55,1.42,2.3,4,2.3,7.89v75.58c0,4.26-0.94,7.16-2.87,8.88c-1.34,1.2-3.59,1.78-6.86,1.78
			l-0.15-0.01l-1.66-0.18v11.67h45.67v-11.5c-3.37-0.11-5.59-0.66-6.92-1.7c-1.62-1.25-2.38-3.98-2.38-8.59v-26.02
			c0-5.78,0.44-10.1,1.34-13.22c1.4-4.93,4.16-8.24,8.21-9.82l0.3-0.08l5.02-0.73c3.9,0,6.98,1.65,9.17,4.89
			c2.07,3.07,3.13,7.05,3.13,11.83v33.16c0,4.6-0.76,7.33-2.39,8.59c-1.34,1.03-3.55,1.58-6.92,1.69v11.5h45.67v-11.48h-2.46
			C203.97,932.82,201.7,932.1,200.24,930.62z"/>
		<path class="st1" d="M254.02,930.49c-1.37-1.52-2.04-4.24-2.04-8.31v-61.2h-37.65v12.55h4.38c3.11,0,5.34,0.84,6.63,2.49
			c1.24,1.59,1.82,4.63,1.82,9.56v36.6c0,4.13-0.94,6.97-2.87,8.68c-1.44,1.31-3.69,1.95-6.86,1.95l-0.11,0l-2.99-0.24v11.72h49.2
			v-11.48h-3.1C257.57,932.82,255.41,932.04,254.02,930.49z"/>
		<path class="st1" d="M237.96,850.89c3.4,0,6.26-1.16,8.74-3.53c2.46-2.36,3.66-5.65,3.66-10.05c0-4.39-1.22-7.68-3.73-10.04
			c-2.54-2.38-5.38-3.54-8.67-3.54c-3.29,0-6.07,1.15-8.49,3.53c-2.42,2.36-3.59,5.65-3.59,10.06c0,4.35,1.21,7.73,3.59,10.06
			C231.9,849.74,234.67,850.89,237.96,850.89z"/>
		<path class="st1" d="M326.52,858.67c-3.19,0-6.46,0.82-9.73,2.44c-3.3,1.64-6.59,4.26-9.77,7.79l-2.42,2.69v-10.79h-36.04V873
			h3.42c3,0,5.32,0.68,6.91,2.02c1.68,1.42,2.5,4.02,2.5,7.93v39.22c0,4.1-1.03,7.04-3.07,8.73c-1.56,1.3-3.84,1.93-6.99,1.93
			l-0.12-0.01l-2.66-0.23v11.71h51.76v-11.48h-5.67c-2.84,0-5.03-0.77-6.53-2.29c-1.51-1.53-2.24-4.27-2.24-8.37v-27.09
			c0-6.1,1.12-11.86,3.32-17.11c2.8-6.6,6.68-9.94,11.55-9.94c2.22,0,4.25,0.4,6.02,1.19l3.31,1.47l-3.45,1.12
			c-2.32,0.75-4.14,2.03-5.58,3.89c-1.42,1.85-2.12,3.76-2.12,5.83c0,0.78,0.21,1.76,0.64,2.91c0.45,1.21,1.02,2.39,1.72,3.48
			c2.13,3.66,4.88,5.41,8.45,5.41c2.89,0,5.54-1.06,8.08-3.23c2.52-2.15,4.04-4.52,4.51-7.04c0.52-2.76,0.78-4.83,0.78-6.16
			c0-5.2-1.63-9.59-4.84-13.05C335.02,860.36,331.18,858.67,326.52,858.67z"/>
		<path class="st1" d="M423.41,869.44c-8.04-7.86-18.61-11.84-31.43-11.84c-12.82,0-23.4,3.98-31.43,11.84
			c-8.03,7.85-12.09,19.02-12.09,33.2c0,14.42,4.12,25.68,12.25,33.47c7.72,7.45,18.24,11.22,31.28,11.22
			c12.83,0,23.3-3.83,31.12-11.4c8.23-8.02,12.41-19.22,12.41-33.29C435.5,888.45,431.43,877.28,423.41,869.44z M408.45,904.43
			c0,9.06-0.71,15.52-2.16,19.76c-2.45,7.03-7.27,10.59-14.31,10.59c-7.35,0-12.38-3.55-14.94-10.57c-1.46-4-2.17-10.47-2.17-19.78
			v-3.22c0-9.07,0.76-15.6,2.33-19.96c2.56-7.14,7.53-10.75,14.78-10.75c7.16,0,12.03,3.69,14.47,10.96c1.34,4,2,10.46,2,19.75
			V904.43z"/>
		<path class="st1" d="M531.67,930.69c-1.66-1.48-2.47-4.26-2.47-8.53V889c0-9.47-1.13-16.45-3.37-20.75
			c-2.79-5.31-7.88-8.45-15.55-9.59h-5.03c-10.6,0-19.61,5.08-26.78,15.11l-2.52,3.52v-16.31h-35.4v12.19h2.78
			c3,0,5.32,0.68,6.91,2.01c1.68,1.42,2.5,4,2.5,7.9v39.09c0,4.39-0.96,7.3-2.92,8.9c-1.45,1.17-3.78,1.73-7.13,1.73l-0.14-0.01
			l-2-0.2v11.69h45.99v-11.5c-3.25-0.11-5.34-0.6-6.53-1.53c-1.87-1.49-2.78-4.36-2.78-8.78v-28.97c0-4.68,0.73-8.91,2.17-12.58
			c1.54-3.91,4.27-6.5,8.11-7.7l0.21-0.05l4.92-0.73c3.72,0,6.73,1.68,8.94,5c2.08,3.14,3.14,7.1,3.14,11.77v33.26
			c0,4.64-0.82,7.38-2.59,8.64c-1.41,1-3.72,1.55-7.04,1.66v11.5h45.67v-11.48h-1.5C535.76,932.82,533.28,932.12,531.67,930.69z"/>
		<path class="st1" d="M626.65,928.66c-1.46-1.76-2.16-4.93-2.16-9.71v-69.16c0-4.74,0.67-7.7,2.12-9.31
			c1.45-1.61,3.79-2.42,6.97-2.42h7.91v-13.62h-62.35v13.62h7.27c3.28,0,5.71,0.84,7.21,2.51c1.48,1.65,2.2,4.67,2.2,9.22v69.16
			c0,4.92-0.75,8.14-2.28,9.84c-1.55,1.72-4.06,2.6-7.45,2.6l-6.95-0.3v13.2h62.35v-12.9h-7.59
			C630.59,931.39,628.15,930.47,626.65,928.66z"/>
		<path class="st1" d="M737.01,930.69c-1.66-1.47-2.47-4.26-2.47-8.53V889c0-9.47-1.13-16.45-3.37-20.75
			c-2.79-5.31-7.88-8.45-15.55-9.59h-5.03c-10.6,0-19.61,5.08-26.78,15.11l-2.52,3.52v-16.31h-35.4v12.19h2.78
			c3,0,5.32,0.68,6.91,2.01c1.68,1.42,2.5,4,2.5,7.9v39.09c0,4.39-0.96,7.3-2.92,8.9c-1.45,1.17-3.78,1.73-7.13,1.73l-0.14-0.01
			l-2-0.2v11.69h45.99v-11.5c-3.25-0.11-5.34-0.6-6.52-1.52c-1.87-1.49-2.78-4.36-2.78-8.78v-28.97c0-4.68,0.73-8.91,2.17-12.58
			c1.54-3.91,4.27-6.5,8.11-7.7l0.21-0.05l4.92-0.73c3.72,0,6.73,1.68,8.94,5c2.08,3.14,3.14,7.1,3.14,11.77v33.26
			c0,4.64-0.82,7.38-2.59,8.64c-1.41,1-3.72,1.55-7.04,1.66v11.5h45.67v-11.48h-1.5C741.1,932.82,738.62,932.12,737.01,930.69z"/>
		<path class="st1" d="M815.61,879.29c0,1.7-0.31,3.82-0.95,6.5l-0.03,0.1l-13.97,44.16l-13.51-45.98v-0.2
			c0-0.06-0.03-0.48-0.44-2.17c-0.46-1.88-0.52-2.5-0.52-2.83c0-2.12,0.93-5.67,7.17-5.67h3.42v-12.19h-46.31v12.21
			c3.89,0.15,6.91,1.45,8.97,3.87c1.65,1.97,3.1,5.24,4.45,10l16.71,57.24h28.1l18.3-57.85c1.8-5.67,3.5-9.2,5.19-10.79
			c1.61-1.51,4.41-2.32,8.55-2.46v-12.22h-34.44v12.21c2.15,0.06,4.01,0.24,5.55,0.56C813.26,874.04,815.61,875.14,815.61,879.29z"
			/>
		<path class="st1" d="M899.91,859.85c-4.8-1.13-9.42-1.72-13.66-1.72c-11.26,0-20.75,4.12-28.22,12.26
			c-7.5,8.16-11.3,19.23-11.3,32.88v0.36c0,13.63,3.97,24.57,11.79,32.49c7.39,7.44,17.21,11.22,29.17,11.22h4.75
			c8.48-0.81,15.52-3.9,20.91-9.19c5.11-5.01,8.83-11.83,11.07-20.29h-16.59c-1.74,10.53-7.54,15.86-17.24,15.86h-1.6
			c-6.26,0-10.79-3.23-13.47-9.59c-1.78-4.28-2.68-10.22-2.68-17.65v-1.39h53.26v-1.46c0-10.61-2.04-19.76-6.06-27.22
			C915.54,868.14,908.77,862.56,899.91,859.85z M900.96,892.89h-28.13v-1.39c0-5.71,0.86-10.29,2.56-13.59
			c2.39-4.57,6.32-6.87,11.66-6.87c5.13,0,8.95,2.31,11.34,6.86c1.7,3.31,2.57,7.89,2.57,13.6V892.89z"/>
		<path class="st1" d="M997.86,900.44c-3.36-2.6-7.38-4.56-11.95-5.82c-4.81-1.32-9.38-2.64-13.59-3.93
			c-9.05-2.76-11.46-4.46-12.44-5.5c-1.77-1.57-2.66-3.58-2.66-5.99c0-3.08,1.34-5.46,3.86-6.89c0.98-0.67,2.17-1.18,3.54-1.51
			c1.34-0.32,2.66-0.48,3.94-0.48c1.54,0,2.88,0.06,4,0.18c1.09,0.12,2.22,0.31,3.35,0.55c3.84,0.87,7.39,2.62,10.53,5.22
			c2.51,2.07,5.05,4.92,7.55,8.49h9.43v-24.67h-9.21l-2.15,5.58l-1.39-0.75c-3.97-2.15-7.89-3.84-11.63-5.03
			c-3.7-1.17-7.45-1.76-11.13-1.76h-3.53c-6.1,0-11.88,1.13-17.19,3.37c-5.21,2.19-9.28,5.63-12.11,10.23
			c-1.21,2.02-2.25,4.38-3.07,7c-0.81,2.58-1.22,5.02-1.22,7.25c0,2.34,0.38,4.68,1.13,6.96c0.76,2.31,1.82,4.51,3.13,6.54
			c3,4.22,7.97,7.71,14.74,10.33c5.8,1.84,11.82,3.69,17.81,5.47c3.38,0.73,5.64,1.33,6.91,1.84c3.27,1.35,5.29,2.98,6.2,5
			l0.12,0.27v2.79c0,1.97-0.64,3.79-1.9,5.4c-1.27,1.63-2.78,2.63-4.5,3c-1.4,0.3-2.75,0.57-4.05,0.81
			c-1.35,0.25-2.51,0.38-3.46,0.38c-5.45,0-10.39-1.84-14.69-5.45c-4.02-3.38-7.27-7.96-9.66-13.62h-10.51v29.3h9.24l2.8-6.61
			l1.34,0.72c5.37,2.87,9.77,4.86,13.08,5.91c4.67,1.53,9.33,2.3,13.86,2.3c4.88,0,9.54-0.56,13.86-1.65
			c4.22-1.07,7.95-2.9,11.1-5.44c3.14-2.53,5.6-5.64,7.32-9.23c1.72-3.6,2.59-7.47,2.59-11.52c0-2.58-0.3-5.08-0.9-7.44
			C1004.74,907.48,1001.88,903.58,997.86,900.44z"/>
		<path class="st1" d="M1058.49,932.85l-0.2,0.09l-3.35,1.13h-0.23c-1.78,0-4.22-0.76-5.75-4.39c-1.06-2.52-1.6-5.32-1.6-8.33
			v-48.16h19.89v-12.19h-19.89v-33.69h-13.72c-1,9.3-2.79,16.56-5.31,21.59c-3.43,6.94-8.83,11.26-16.06,12.86v11.42h10.91v41.84
			c0,5.82,0.34,10.78,1.02,14.76c0.65,3.83,2.1,7.2,4.3,10.02c2.18,2.79,4.83,4.76,7.87,5.84c3.15,1.12,6.67,1.69,10.44,1.69h5.13
			c4.09,0,7.97-1.15,11.53-3.41c3.54-2.26,6.26-5.47,8.06-9.55c0.91-2.01,1.55-4.12,1.91-6.29c0.36-2.22,0.54-5.86,0.54-10.82
			v-10.63h-10.69v8.11c0,4.17-0.3,7.92-0.88,11.16C1061.76,929.53,1060.48,931.81,1058.49,932.85z"/>
		<path class="st1" d="M1214.97,930.49c-1.37-1.53-2.04-4.25-2.04-8.33V889c0-5.92-0.37-10.56-1.09-13.78
			c-1.11-4.81-3.08-8.59-5.86-11.24c-2.15-1.84-4.56-3.22-7.09-4.05c-2.57-0.84-5.48-1.27-8.63-1.27h-4.41
			c-4,0.46-7.87,1.94-11.49,4.4c-3.29,2.17-6.42,5.18-9.3,8.96l-1.45,1.89l-0.94-2.19c-2.01-4.68-4.83-8.05-8.38-10.03
			c-3.62-2.01-8.04-3.03-13.12-3.03h-1.28c-4.86,0-9.21,1.11-12.93,3.29c-3.77,2.2-7.34,5.7-10.63,10.38l-2.53,3.6v-14.95h-35.4
			v12.19h2.78c3.05,0,5.26,0.63,6.77,1.94c1.57,1.36,2.33,3.97,2.33,7.98v39.09c0,4.21-1.03,7.2-3.07,8.89
			c-1.46,1.18-3.74,1.74-6.99,1.74l-0.15-0.01l-1.66-0.18v11.67h44.38v-11.52c-2.81-0.18-4.74-0.95-5.86-2.34
			c-1.24-1.51-1.84-4.1-1.84-7.92V894c0-5.14,0.62-9.44,1.85-12.78c1.78-5,4.9-7.88,9.27-8.56l0.21-0.02h1.93
			c4.08,0,7.09,1.88,8.94,5.58c1.37,2.67,2.07,6.42,2.07,11.14v33.16c0,7.58-3.92,9.83-7.7,10.23v11.55h39.89v-11.52
			c-3.17-0.19-5.21-1.07-6.21-2.66c-1.01-1.6-1.49-4.44-1.49-8.67v-28.16c0-4.53,0.59-8.57,1.76-12.03
			c1.25-3.71,3.65-6.33,7.11-7.79l0.26-0.11h0.13c0.08-0.04,0.24-0.12,0.51-0.3l0.22-0.14l0.25-0.06c0.65-0.14,1.53-0.21,2.7-0.21
			c1.94,0,4.04,0.63,6.22,1.88c2.3,1.32,3.9,3.55,4.74,6.63c0.46,1.69,0.69,4.37,0.69,8.21v33.16c0,3.72-0.69,6.3-2.12,7.88
			c-1.26,1.4-3.2,2.18-5.9,2.37v11.53h44.71v-11.48h-3.42C1218.63,932.82,1216.37,932.03,1214.97,930.49z"/>
		<path class="st1" d="M1283.33,859.85c-4.8-1.13-9.42-1.72-13.66-1.72c-11.26,0-20.75,4.12-28.22,12.26
			c-7.5,8.16-11.3,19.23-11.3,32.88v0.36c0,13.64,3.97,24.57,11.79,32.49c7.39,7.44,17.21,11.22,29.17,11.22h4.75
			c8.48-0.81,15.52-3.9,20.91-9.19c5.11-5.01,8.83-11.83,11.07-20.29h-16.59c-1.74,10.53-7.54,15.86-17.24,15.86h-1.6
			c-6.26,0-10.79-3.23-13.47-9.59c-1.78-4.28-2.68-10.22-2.68-17.65v-1.39h53.26v-1.46c0-10.61-2.04-19.76-6.06-27.22
			C1298.96,868.14,1292.19,862.57,1283.33,859.85z M1284.38,892.89h-28.13v-1.39c0-5.71,0.86-10.29,2.56-13.59
			c2.39-4.56,6.32-6.87,11.66-6.87c5.13,0,8.95,2.31,11.34,6.86c1.7,3.31,2.57,7.89,2.57,13.6V892.89z"/>
		<path class="st1" d="M1406.63,930.69c-1.66-1.47-2.47-4.26-2.47-8.53V889c0-9.47-1.13-16.45-3.37-20.75
			c-2.79-5.31-7.88-8.45-15.55-9.59h-5.03c-10.6,0-19.61,5.08-26.78,15.11l-2.52,3.52v-16.31h-35.4v12.19h2.78
			c3,0,5.32,0.68,6.91,2.01c1.68,1.42,2.5,4,2.5,7.9v39.09c0,4.39-0.96,7.3-2.92,8.9c-1.45,1.17-3.78,1.73-7.13,1.73l-0.14-0.01
			l-2-0.2v11.69h45.99v-11.5c-3.25-0.11-5.34-0.6-6.52-1.52c-1.87-1.49-2.78-4.36-2.78-8.78v-28.97c0-4.68,0.73-8.91,2.17-12.58
			c1.54-3.91,4.27-6.5,8.11-7.7l0.21-0.05l4.92-0.73c3.72,0,6.73,1.68,8.94,5c2.08,3.14,3.14,7.1,3.14,11.77v33.26
			c0,4.64-0.82,7.38-2.59,8.64c-1.41,1-3.72,1.55-7.04,1.66v11.5h45.67v-11.48h-1.5C1410.73,932.82,1408.25,932.12,1406.63,930.69z"
			/>
		<path class="st1" d="M1466.1,932.94l-3.35,1.13h-0.23c-1.78,0-4.22-0.76-5.75-4.39c-1.06-2.52-1.59-5.32-1.59-8.33v-48.16h19.89
			v-12.19h-19.89v-33.69h-13.72c-1,9.3-2.79,16.56-5.31,21.59c-3.43,6.94-8.83,11.26-16.06,12.86v11.42h10.91v41.84
			c0,5.82,0.34,10.78,1.02,14.76c0.65,3.83,2.1,7.2,4.3,10.02c2.18,2.79,4.82,4.76,7.87,5.84c3.15,1.12,6.67,1.69,10.44,1.69h5.13
			c4.09,0,7.97-1.15,11.53-3.41c3.54-2.26,6.26-5.47,8.06-9.55c0.91-2.01,1.55-4.12,1.9-6.29c0.36-2.22,0.54-5.86,0.54-10.82v-10.63
			h-10.69v8.11c0,4.17-0.3,7.92-0.88,11.16c-0.66,3.65-1.95,5.93-3.93,6.97L1466.1,932.94z"/>
		<path class="st1" d="M1553.26,900.44c-3.36-2.6-7.38-4.56-11.95-5.82c-4.81-1.32-9.38-2.64-13.59-3.93
			c-9.05-2.76-11.46-4.46-12.44-5.5c-1.77-1.57-2.66-3.58-2.66-5.99c0-3.08,1.34-5.46,3.86-6.89c0.98-0.67,2.17-1.18,3.54-1.51
			c1.34-0.32,2.66-0.48,3.94-0.48c1.54,0,2.88,0.06,4,0.18c1.09,0.12,2.22,0.31,3.35,0.55c3.84,0.87,7.39,2.62,10.53,5.22
			c2.51,2.07,5.05,4.92,7.55,8.49h9.43v-24.67h-9.21l-2.15,5.58l-1.39-0.75c-3.97-2.15-7.89-3.84-11.63-5.03
			c-3.7-1.17-7.45-1.76-11.13-1.76h-3.53c-6.1,0-11.88,1.13-17.19,3.37c-5.21,2.19-9.28,5.63-12.11,10.23
			c-1.21,2.02-2.25,4.38-3.07,7c-0.81,2.58-1.22,5.02-1.22,7.25c0,2.34,0.38,4.68,1.13,6.96c0.76,2.31,1.81,4.51,3.13,6.54
			c3,4.22,7.97,7.71,14.74,10.33c5.81,1.84,11.83,3.69,17.81,5.47c3.38,0.73,5.64,1.33,6.91,1.84c3.27,1.35,5.29,2.98,6.2,5
			l0.12,0.27v2.79c0,1.97-0.64,3.79-1.9,5.4c-1.27,1.63-2.78,2.64-4.5,3c-1.4,0.3-2.75,0.57-4.05,0.81
			c-1.35,0.25-2.51,0.38-3.46,0.38c-5.45,0-10.39-1.84-14.69-5.45c-4.02-3.38-7.27-7.96-9.66-13.62h-10.51v29.3h9.24l2.8-6.61
			l1.34,0.72c5.37,2.87,9.77,4.86,13.08,5.91c4.67,1.53,9.33,2.3,13.86,2.3c4.88,0,9.54-0.56,13.86-1.65
			c4.22-1.07,7.95-2.9,11.1-5.44c3.14-2.53,5.6-5.64,7.32-9.23c1.72-3.6,2.59-7.47,2.59-11.52c0-2.58-0.3-5.08-0.9-7.44
			C1560.14,907.48,1557.28,903.58,1553.26,900.44z"/>
		<path class="st1" d="M1677.48,898.55c0.66,1.17,1.55,3.88,1.55,13.9v2.13c0,3.28-0.28,6.14-0.84,8.48
			c-0.62,2.61-1.96,4.57-3.99,5.82c-4.18,2.5-8.63,3.76-13.25,3.76c-6.45,0-12-2.29-16.47-6.82c-4.41-4.46-7.43-11.29-8.97-20.32
			c-0.87-5.15-1.3-12.65-1.3-22.29c0-9.44,0.71-17.27,2.12-23.27c2.1-8.7,5.88-15.25,11.24-19.46c4.03-2.81,8.72-4.21,14.01-4.21
			c4.24,0,8.1,0.76,11.47,2.26c5.84,2.37,10.3,6.93,13.22,13.54c1.97,4.38,3.46,10.34,4.44,17.71h13.43v-46.42h-12.68l-3.15,9.73
			l-1.54-1.07c-4.21-2.92-7.61-5.05-10.11-6.32c-3.72-1.95-7.25-3.22-10.52-3.79c-2.85-0.34-5.03-0.54-6.4-0.6
			c-1.38-0.06-3.04-0.09-4.91-0.09c-2.9,0-6.08,0.24-9.44,0.7c-3.29,0.46-6.1,1.14-8.33,2.05c-11.62,4.49-20.77,12.84-27.21,24.82
			c-5.85,10.9-8.82,23.67-8.82,37.97v5.34c0,13.28,3.63,24.95,10.8,34.69c7.15,9.71,16.77,16.15,28.58,19.14
			c3.19,0.8,5.84,1.23,7.88,1.29c2.15,0.06,4.13,0.09,5.9,0.09h6.99c4.83-0.46,9.63-1.72,14.27-3.74c3.57-1.49,8.03-3.94,13.29-7.27
			l1.35-0.86l4.46,9.91h12.15v-40.32c0-3.68,0.85-6.16,2.6-7.59c1.64-1.33,3.93-2.01,6.81-2.01h4.06V882.2h-57.22v13.26h5.35
			C1673.3,895.46,1676.29,896.47,1677.48,898.55z"/>
		<path class="st1" d="M1783.52,858.67c-3.19,0-6.46,0.82-9.73,2.44c-3.3,1.64-6.59,4.26-9.77,7.79l-2.42,2.69v-10.79h-36.04V873
			h3.42c3,0,5.32,0.68,6.91,2.02c1.68,1.42,2.5,4.02,2.5,7.93v39.22c0,4.1-1.03,7.04-3.07,8.73c-1.56,1.3-3.84,1.93-6.99,1.93
			l-0.12-0.01l-2.66-0.23v11.71h51.76v-11.48h-5.67c-2.84,0-5.03-0.77-6.53-2.29c-1.51-1.53-2.24-4.27-2.24-8.37v-27.09
			c0-6.1,1.12-11.86,3.32-17.11c2.8-6.6,6.68-9.94,11.55-9.94c2.22,0,4.24,0.4,6.02,1.19l3.32,1.47l-3.45,1.12
			c-2.32,0.75-4.14,2.03-5.59,3.89c-1.42,1.85-2.12,3.76-2.12,5.83c0,0.78,0.21,1.76,0.64,2.91c0.45,1.21,1.02,2.39,1.72,3.48
			c2.13,3.66,4.88,5.41,8.45,5.41c2.89,0,5.54-1.06,8.08-3.23c2.52-2.15,4.04-4.52,4.51-7.04c0.52-2.76,0.78-4.83,0.78-6.16
			c0-5.2-1.63-9.59-4.84-13.05C1792.02,860.36,1788.18,858.67,1783.52,858.67z"/>
		<path class="st1" d="M1848.97,857.6c-12.82,0-23.4,3.98-31.43,11.84c-8.03,7.85-12.09,19.02-12.09,33.2
			c0,14.42,4.12,25.68,12.24,33.47c7.72,7.45,18.24,11.22,31.28,11.22c12.83,0,23.3-3.83,31.12-11.4
			c8.23-8.02,12.41-19.22,12.41-33.29c0-14.19-4.07-25.36-12.09-33.2C1872.37,861.58,1861.8,857.6,1848.97,857.6z M1865.44,904.43
			c0,9.05-0.71,15.52-2.16,19.76c-2.45,7.03-7.27,10.59-14.31,10.59c-7.35,0-12.38-3.55-14.94-10.57c-1.46-4-2.17-10.47-2.17-19.78
			v-3.22c0-9.07,0.76-15.6,2.33-19.96c2.56-7.14,7.53-10.75,14.79-10.75c7.16,0,12.03,3.69,14.47,10.96c1.34,4,2,10.46,2,19.75
			V904.43z"/>
		<path class="st1" d="M1961.06,944.3h35.72v-11.48h-3.42c-3.05,0-5.35-0.77-6.85-2.28c-1.51-1.53-2.25-4.26-2.25-8.36v-61.2h-33.8
			v12.22c3.11,0.12,5.32,0.66,6.71,1.65c1.74,1.24,2.59,3.93,2.59,8.24v27.72c0,5.23-0.62,9.58-1.85,12.92
			c-1.76,4.81-4.83,7.85-9.12,9.04l-0.09,0.02l-3.81,0.74c-4.13,0-7.28-1.69-9.36-5.01c-1.95-3.11-2.94-7.16-2.94-12.03v-55.51
			h-36.36v12.19h1.82c3.24,0,5.6,0.62,7.2,1.9c1.7,1.36,2.53,3.98,2.53,8.02v33.43c0,10.13,1.34,17.49,3.97,21.87
			c3.19,5.41,8.88,8.04,17.42,8.04h3.21c10.53,0,19.08-4.82,26.14-14.75l2.52-3.55V944.3z"/>
		<path class="st1" d="M2087.45,871.49c-5.13-8.99-12.71-13.35-23.18-13.35h-1.93c-4.51,0-8.84,1.36-12.86,4.04
			c-3.49,2.29-6.88,5.65-10.08,10l-2.51,3.42v-14.62h-34.76v12.19h1.82c3.24,0,5.6,0.62,7.2,1.9c1.7,1.36,2.53,3.99,2.53,8.03v78.29
			c0,4.16-0.91,6.91-2.77,8.38c-1.34,1.04-3.51,1.55-6.64,1.55h-2.14v12.19h48.88v-12.19h-4.71c-2.9,0-4.86-0.62-6.01-1.89
			c-1.43-1.58-2.12-4.22-2.12-8.06v-29.05l2.44,2.83c2.21,2.55,4.2,4.64,5.93,6.2c1.65,1.49,3.91,2.85,6.71,4.03
			c2.77,1.17,6.2,1.76,10.19,1.76c3.47,0,6.79-0.57,9.85-1.69c7.2-3.02,12.7-8.93,16.3-17.55c2.92-7.14,4.41-15.77,4.41-25.62
			C2094,889.43,2091.8,879.07,2087.45,871.49z M2065.29,921.47c-2.1,8.01-6.11,12.06-11.94,12.06h-0.64
			c-5.65,0-9.76-3.48-12.22-10.34c-1.54-4.39-2.33-10.23-2.33-17.35v-3.55c0-7.32,0.67-13.54,2-18.49
			c2.23-8.23,6.07-12.41,11.41-12.41l0.21,0.02l4.82,0.78c4.57,1.72,7.65,6.31,9.16,13.64c0.77,3.76,1.17,9.41,1.17,16.81
			C2066.94,910.89,2066.39,917.23,2065.29,921.47z"/>
	</g>
	<g>
		<polygon class="st2" points="873,604.83 905.18,602.43 911,594.83 886,532.83 871,531.83 862,552.83 		"/>
		<path class="st2" d="M1283.06,491.04l-4.06,30.79c0,0-2.12,9.65-10.06,12.33c-7.94,2.67-13.94,5.67-13.94,5.67l-53,31l-10.21,4.01
			l-46.79-9.01v-57.17l22-20.83l100-13L1283.06,491.04z"/>
		<path class="st2" d="M1193.27,281.83c0,0-42.76,37.07-55.01,39.03c-12.26,1.97-79.24-19.52-79.24-19.52l-31.99,10.55
			c0,0-16.57,11.91-30.79,16.42S973,329.83,973,329.83l-29-5l105.14-87.87l40.86-34.13l13-2l-3.9,17.43l29.9-3.43h45l19-16.22
			l58-20.78l32.02-19.77l50.26-19.03v3.08c0,0-2.21,14.36-11.25,21.53c-9.04,7.18-58.04,25.18-71.04,36.18s-47,26-51,30
			s-6.97,18.12-6,22c1,4,3,8,2,16s-3,15-3,15"/>
		<path class="st3" d="M1377.91,144.84l-4.17,5.64c-2.22,3.01-4.81,6.03-6.44,7.58c-1.81-2.93-4.47-10-6.49-15.4
			c-2.6-6.92-5.54-14.76-8.81-20.97c-1.94-3.69-4.57-8.19-7.36-12.96c-4.44-7.6-11.71-20.02-12.41-23.98
			c1.68-1.11,6.14-3.07,10.45-4.54l4.39-1.51l-2.69-3.78c-0.33-0.46-8.25-11.44-32.74-30.6c-19.06-14.91-45.14-23.35-79.72-25.78
			c-24.26-1.71-33.41-6.32-36.82-9.89c-0.91-0.95-1.37-1.55-1.6-1.88c0.36-2.3-1.02-3.85-2.59-5.18c-2.92-2.47-5.94-1.73-7.51,0.01
			c-2.79,3.08-1.99,9.68,4.92,16.36c8.47,8.2,21.52,11.39,45.81,15.06l1.5,0.23c21.31,3.22,34.17,5.16,46.42,14.89
			c4.35,3.46,8.71,10.3,8.71,10.3c0.11-0.35,10.83,4.9,11.36,6.81c0.94,2.16-1.01,6.62-1.01,6.62s23.37,31.8,35.74,60.02
			c12.98,29.61,18.73,51.46,18.78,51.68l0.41,1.52c0,0,4.79,1.41,5.06,2.7c0.59,2.82-1.6,12-1.61,12.07c0,0,5.17,8.26,4.03,16.99
			c-1.22,9.4-6.74,26.2-18.29,42.62c-11.64,16.55-17.69,35.78-14.72,46.76c2.22,8.2,6.44,10.43,9.66,9.78
			c0.12-0.02,0.24-0.05,0.35-0.08c2.38-0.66,3.88-3,3.54-5.59l-0.16-0.99l-0.6-0.75c-0.15-0.19-3.74-4.82-1.76-13.36
			c1.6-6.9,7.09-14.16,13.44-22.56c9.12-12.05,20.46-27.05,24.61-47.51c5.98-29.47,6.06-53.54,0.26-73.6L1377.91,144.84z"/>
		<path class="st1" d="M1092.65,237.93c0.47-0.12,0.71-0.16,0.69-0.14c0.2,0,0.98,0.14,1.87,0.32c-0.48-1.48-0.74-2.34-0.74-2.34
			S1093.76,236.64,1092.65,237.93z"/>
		<path class="st1" d="M1360.58,118.87c-2.46,0.31-5.05-1.1-7.49-1.23c-2.3-0.09-7.26,1.63-11.04,2.61
			c-3.87,1.02-9.71,5.41-10.98,7.47c-2.92,4.5-3.79,9.65-6.52,11.28c-10.65,6.38-17.37,6.55-27.99,9.56
			c-8.26,2.34-18.87,5.46-34.7,12.85c-5.68,2.65-15.9,14.15-18.68,15.46c-9.37,4.8-15.93-0.59-40.72,9.99
			c-10.65,4.59-16.3,6.87-20.73,11.51c0,0-20.69,12.19-21.64,12.07c-27.31-3.34-48.73,2-55.61,4.09c-0.29-5.63,1.62-9.44,2.04-12.3
			c0.28-1.95,0.41-3.49-0.09-4.93c-4.2,1.25-5.79,0.62-11.4,0.73c8.19-2.74,11.63-3.52,17.55-6.7c2.43-1.31,3.5-4.07,1.64-7.38
			c-1.31-2.34-2.08-3.99-2.6-5.46c-0.83-2.31-1.06-4.19-1.87-7.62c2.2-1.84,4.88-4.45,4.81-6.37c-0.05-1.38-3.88-3.72-7.77-6.12
			c-1.54-0.95-6.36-1.79-4.37-6.1c-1.51-4.31-4.8-11.21-8.07-13.53c1.51-6.9-9.12-8.95-13.89-8.32c-3.34,0.43-6.52,0.88-9.59,1.5
			c-1.11,0.12-2.22,0.3-3.32,0.56c-26.04,6.16-40.87,25.66-54.99,34.4c-18.65,11.54-30.22,14.28-30.22,14.28s9.24,0.19,17.08-0.99
			c11.8-1.77,21.72-7.18,27.05-10.48c-5.15,8.35-10.71,10.68-35.55,17.58c-14.45,4.01-16.9,6.04-28.07,14.79
			c-6.07,4.76-11.67,10.91-16.78,15.17c-5.17,4.32-13.1,9.21-13.1,9.21s14.87-2.04,30.91-11.39c6.87-4.01,12.3-6.88,16.5-8.92
			c-4.09,2.48-9.32,6.2-15.82,11.82c0,0,18.14-9.39,37.43-13.95c0,0-31.51,10.7-48.14,24.63c-16.63,13.93-21.89,22.83-26.43,41.94
			c0,0,13.63-18.55,30.59-28.67c13.75-8.21,24.44-12.91,24.44-12.91s-16.1,7.93-32.42,25.03c-12.22,12.81-9.36,26.24-34.59,43.15
			c0,0,8.7,2.45,21.21-5.02c16.95-10.12,13.65-14.63,36.12-33.4c12.67-10.58,27.07-13.16,35.78-16.61
			c7.66-3.04,10.84-7.63,10.84-7.63s-3.52,7.42-9.19,10.3c-6.78,3.44-15.02,3.58-23.98,8.76c-14.06,8.12-22.41,20.51-29.49,29.31
			c0,0,24.53-19.6,43.55-19.06c0,0-32.75,10.8-44.35,27.09c-6.17,8.66,51.03,8.03,55.11,3.66l64.14-43.6
			c-9.61,0.06-28.88-0.25-34.17,0.88c4.1-2.04,36.53-22.85,37-23l21.89-25.91l-3.58,19.54c0,0,18.99-0.46,31.06,2.25
			c9.95,2.23,19.07,2.54,32.23,9.22c1.88,0.95,3.6,1.92,5.19,2.89l0.21,0.01c0,0,12,7,16,13c2.61,3.91,4.14,5.66,4.13,8.15
			c-0.09,11.93-14.13,21.85-29.56,10.76c-5.66-5.07-28.99-18.14-34.56-19.91c3.24,2.92,13.22,9.2,18.29,14.35
			c0.45,0.33,0.79,0.58,1.14,0.93l2.38,1.85c5.49,4.59,15.76,14.66,25.63,17.64c4.75,1.43,8.92,1.98,15.85-4.95
			c5.43-5.43,7.7-11.82,5.7-23.82c-0.5-3.02-4.08-7.72-7-11c-7.22-8.12-23.33-17.05-32.34-20.19c3.46-1.35,13.48-4.83,25.55-5.12
			c0,0,9.34-12.21,18.63-16.46c13.85-6.34,41.67-14.02,55.59-17.36c8.66-14.21,27.38-21.16,47.33-28.16
			c10.85-3.81,19.85-6.48,27.77-9.68l-2.83,7.07c-14.21,8.21-35.43,23.87-59.87,31.96c0,0-44.62,31.6-57.54,34.91
			c-11.78,3.02-29.8,8.7-29.8,8.7c4.07,2.9,15.26,12.39,18.5,22.32c5.76-8.66,11.8-15.29,18.51-18.95
			c9.04-4.93,19.29-6.1,31.71-15.01c9.08-6.52,12.17-16,20.65-19.34c5.81-2.29,16.15-2.73,21.77-5.69
			c25.59-13.74,25.21-17.88,44.41-31.14c5.19-3.97,9.84-0.19,15.77-3.34c3.95-2.1,3.02-3.86,4.96-5.13l-1.72-3.52
			c-1.18,0.51-2.35,0.8-3.59,0.69c-1.72-0.23-1.96-2.29-1.2-3.04c-1.13,0.38-2.99-2.17-1.63-3.29c-1.54-0.31-2.84-2.95-2.64-4.23
			c-1.17,0.29-2,1-2.45,1.46c2.14-1.03,4.57-2.15,5.87-3.9c2.11-2.85,3.77-5.1,2.5-9.89c1.95,0.02,5.27-1.57,7.69-2.72
			c2.58-0.15,4.34-0.81,5.36-1.75C1361.24,121.84,1361.37,119.31,1360.58,118.87z"/>
		<path class="st2" d="M1088.77,241.7l-13.6,9.25c2.23-0.01,3.93-0.05,4.83-0.12c1.59-0.18,9.13-8.78,12.65-12.89
			c-0.76,0.19-2.12,0.55-3.95,1.05L1088.77,241.7z"/>
		<polygon class="st4" points="1097.19,156 1088.61,156.74 1083.43,159.94 1093.35,162.87 1098.65,157.23 1108.14,166.03 
			1103.98,171.56 1110.5,185.18 1102.39,180.71 1086.24,171.8 1069.42,173.15 1076.23,162.96 1066.15,148.21 1074.45,144.27 
			1089.1,142.12 		"/>
		<path class="st4" d="M1055.43,198.6c0,0,1.86,12.59,0.1,22.5c-0.92,5.22-9.53,15.34-23.6,21.7c0,0,22.76-9.44,26.16-18.87
			C1060.92,216.09,1056.44,199.42,1055.43,198.6z"/>
		<path class="st1" d="M414.99,777.31c0,0,402.92-6.65,633.04-6.65c215.05,0,630.97,5.64,630.97,5.64s-166.9-32.04-633.76-32.04
			S414.99,777.31,414.99,777.31z"/>
		<polygon class="st5" points="1142.07,269.66 1142.05,269.56 1142.15,269.55 		"/>
		<polygon class="st4" points="1247.94,568.28 1248.15,530.96 1240.24,458.71 1206.7,449.03 1223.12,468.21 1247.94,568.28 		"/>
		<path class="st6" d="M1197.57,572.21l-0.13,0.06c0.55,0.76,1.08,1.51,1.61,2.25C1198.57,573.76,1198.07,572.99,1197.57,572.21z"/>
		<path class="st1" d="M1370.34,537.92c-2.88-19.1-7.28-39.56-8.92-58.83c-0.29-3.43,2.16-7.69,1.68-11.11
			c-0.91-6.08-3.28-12.48-5.89-18.09c-0.86-1.77-15.69-5.55-19.52-3.81c-6.41,2.98-19.82,8.58-41.64,0.88
			c-4.4-1.55-9.72-2.63-15.04-3.39c-6.07-33.6-22.88-71.38-47.78-98.06c-2.62-3.12-5.76-6.05-9.31-8.42c0.78-1.76,0.99-7.93,0-10.9
			c-2.53-7.58-9.91-17.84-13.87-18.83c0.96-1.92,0.28-5.38,0-7.93c-0.99-8.92-8.2-26.56-14.06-31.63
			c-1.65,5.3-4.77,13.79-12.69,18.75c-4.3,2.69-8.92,2.97-13.87,1.98c0,5.95-10.38,12.5-12.88,13.87
			c-10.58,5.68-27.75,9.91-48.97,5.86c-12.87-2.45-20.6-9.63-31.97-16.84c0.45-0.18,1.9-0.77,3.38-0.63
			c9.34,5.52,15.56,9.42,26.66,11.92c16.21,3.65,38.34-1.47,49.9-7.25c5.95-2.97,8.92-7.93,8.92-7.93
			c-4.95-1.98-8.92-4.95-8.92-4.95c-4.95,4.95-21.4,9.23-30.72,8.92c-4.79-0.16-11.89-0.99-16.85-2.97l-15-7.73l5-16
			c0,0-0.31,0.61-2.26,2.16c-5.95,3.85-13.14,4.54-17.44,2.06c-11.53,5.3-22.03,3.34-26.45,6.11c-2.9,1.79-4.66,3.95-7.12,5.77
			c-5,3.67-8.89,8.15-13.38,13.01c-5.67,6.12-17.76,22.59-35.13,34.38c12.62-2.4,40.12-21.25,56.06-17.81
			c10.82,9.58,30.38,24.51,55.71,36.51c24.77,7.93,22.79,28.74,30.72,32.7c1.98,7.93-0.24,17.92,0.63,21.74
			c2.33,8.35-6.34,18.58-46.71,25.63c-13.24,1.31-24.01,2.23-34.53,2.6c-12.52,0.13-27.22-0.3-42.38-1.66
			c-3.1-1.37-9.28-5.6-14.35-6.52c-15.28-2.77-47.93-6.59-62.03-4.69c-22.22,2.99-41.02,5.14-57.16,20.06
			c-17.03-0.44-28.04,3.1-35.66,9.94c-11.19,7.46-32.56,22.88-26.27,26.87c-9.91,9.61-23.55,14.84-34.84,14.25
			c4.86,3.19,12.95,5.66,20.22,4.49c-4.21,1.66-11.92,4.84-16.13,6.5c7.71,1.14,18.48-0.84,28.03-4.89
			c-0.81,0.56-1.65,1.13-2.56,1.71c-13.55,8.7-34.27,6.89-49.13,21.54c2.88-0.42,5.6-0.58,8.17-0.49c2.64,0.2,12.52-0.2,16.06-1.43
			c-5.65,2.97-15.9,3.29-17.98,3.59c-14.9,2.26-34,3.11-45.57,12.83c9.1-1.63,22.08,4.33,30.85,5.03
			c10.39,0.77,23.46-1.03,34.61-7.58c-16.08,17.07-50.15,7.97-66.18,7.1c-20.04-0.99-41.6,4.88-56.93,12.99
			c-12.96,6.92-19.85,21.51-29.82,32.26c11.13-7.32,20.31-19.68,33.5-22.03c11.61-2.13,24.11,2.09,36.26,4.88
			c-5.4-0.33-11.03-0.91-17.12-1.59c-7.57-0.91-19.89,4.42-23.43,9.1c6.52-3.83,15.29-5.73,24.96-4.35
			c16.04,2.12,22.56,14.71,38.63,12.8c11.13-1.27,32.5-4.98,43.4-10.43c13.77-4.53,27.68-11.81,40.69-22.84
			c18.66-15.73,23.86-46.07,31.22-63.24c5.27-12.27,10.71-18.87,17.29-22.9c-0.07,0.13-0.14,0.25-0.2,0.37
			c-11.12,17.16-19.29,41.08-14.17,61.88c1.32,5.35-1.59,14.43-1.63,14.35c-11.77,38.45-31.85,54.32-57.3,68.09
			c-11.67,6.41-28.04,7-43.54,10.83c-5.07,1.34-7.37,8.23-9.85,14.06c-12.53,29.08-18.59,45.15-32.84,59.11
			c-4.78,4.69,13.84,28.82,12.08,32.34c-1.45,2.9-3.25,6.77-2.9,8.71c0.43,2.43,8.99,1.09,7.39,2.81c-1.34,1.53-4.11,1.44-4.4,3.35
			c-0.48,3.06-0.3,11.53,1.9,18.22h43.69c2.01-0.86,3.92-2.39,4.4-3.83c-5.55-2.49-9.28-8.9-14.64-12.53
			c-1.43-0.96-4.21-1.24-5.84-1.53c-4.17-1.7-2.52-5.94,0.39-8.06c4.65-1.85,2.18-7.06-0.58-9.73c-6.12-5.83-7.94-6.98-12.91-16.93
			c-1.91-4.02,2.1-7.75,4.69-11.77c12.15-18.37,26.11-32.43,44.1-52.8c12.69,0.11,43.31,1.57,60.26,1.01
			c7.69,0.04,15.12-0.62,21.91-2.54c18.51-5.19,30.44-20.94,41.12-34.52c-2.45-4.27-5.91-10.32-9.38-16.38
			c-6.4-11.16-19.72-30.76-20.36-44.24c0,0,1.28,8.34,17.96,32.72c13.84,20.23,19.81,27.88,20.58,41.91
			c1.27,6.42,1.11,13.66-1.76,21.08c-5.64,14.64-18.52,28.51-18.24,36.83c0.29,14.16,7.98,11.29,11.81,15.88
			c17.03,12.05,35.3,17.79,50.79,30.32c0-0.01,0-0.01,0.01-0.02c1.26,1.73,0.61,2.87,0.94,4.59c0,0.01,0.01,0.02,0.01,0.04
			c-0.02,3.91,2.37,10.57,7.28,10.47c3.92-0.1,6.02-3.6,9.94-3.41c2.58,1.34,4.21,3.25,3.44,6.41c-1.82,4.88,1.43,11.19,2.97,17.03
			h52.01c0.76-1.15,2.49-2.87,1.53-3.83c-8.13-8.04-13.1-16.36-19.71-17.22c-1.53-0.19-3.25,0.29-5.45-0.48
			c-1.24-0.48-1.72-3.06-0.86-4.11c0.13-2.64,2.94-1.59,1.12-4.55c-1.05-2.2-1.79-4.18-5.81-5.81
			c-9.28-3.75-23.92-13.39-33.64-20.59c-7.77-6.42-16.38-13.62-23.25-19.55c-5.37-4.65-8.62-8-10.56-10.43c0,0,0,0,0,0
			c14.16-12.91,27.98-25.4,39.56-40.7c7.45-9.81,24.61-28.93,30.18-48.72c0-0.01,0-0.01,0-0.02c28.43,7.44,68.08,13.03,104.43,12.28
			c29.23-0.6,54.96-6.4,80.63-16.57c-0.21-0.28-0.42-0.57-0.63-0.85c-17.63-24.79-23.41-44.25-23.41-44.25
			c-0.15-15.13,7.7-32.08,7.7-32.08s-6.42,20.53-1.92,34.64c3.28,10.3,14.61,26.96,23.92,39.96l0.13-0.06c0.5,0.78,1,1.55,1.49,2.31
			c5.62,7.79,10.23,13.94,11.42,16.04c7.69,9.75,1.59,22.55,3.98,35.34c1.05,5.93-0.29,12.05,3.35,16.84
			c5.17,7.08,17.7,7.84,21.24,10.62c21.04,17.22,39.99,30.9,58.45,50.89c6.22,6.79-0.1,12.91-0.67,18.56
			c-0.48,4.21,0.19,10.04,5.84,9.85c3.92-0.1,7.27-1.15,11.19-0.96c2.58,1.34,4.21,3.25,3.44,6.41c-1.82,4.88,1.44,11.19,2.97,17.03
			h46.21c0.77-1.15,2.49-2.87,1.53-3.83c-8.13-8.04-13.1-16.36-19.71-17.22c-1.53-0.19-3.2-0.86-5.4-1.62
			c-1.15-0.48,0.81-4.6,1.28-6.51c1.15-4.59-7.08-11.57-11.38-16.45c-20.51-23.07-40.87-46.38-62.03-68.97
			c-3.94-4.8-6.89-10.6-8.8-15c-0.45-1.43-1.02-2.82-1.58-4.14c-8.18-20.88-0.43-48.62,1.08-73.92c0.1-45.06-5.51-63.98-5.51-63.98
			s7.06,6.31,8.44,52.28c6.41-2.53,12.33-3.15,24.14-13.95c14.85-13.45,28.97-27.48,43.59-41.13c0.03,1.43,0.11,3.28,0.35,5.52
			c-0.01,0.01-0.01,0.02-0.02,0.03c0.02,0.11,0.04,0.22,0.06,0.33c0.36,3.2,1.08,7.17,2.48,11.86c2.79,10.34,6.73,19.27,10.03,28.43
			c2.16,6.42,2.93,10.35,3.39,13.52c0.63,4.38-3.16,11.87-9.19,19.89c-0.08,0.1-0.14,0.2-0.21,0.3c-4.42,5.4-9.8,10.27-15.81,12.89
			c-5.52,2.32-8.55-2.11-12.56-1.99c-3.64,0.11-3.61,4.03-3.78,6.05c-0.03,0.42-0.02,0.83-0.03,1.24c-0.78-0.13-1.54-0.44-2.27-1.12
			c-0.25-1.13-0.5-2.08-0.82-2.73c-3.85-1.99-10.44-1.63-14.17,0.21c-4.59,8.78-2.37,35.07,7.08,39.62c3.66-3.17,6.53-4.86,9.22-9.9
			c0.32-1.07,0.64-2.24,0.97-3.31c0.29-1.27,1.74-1.59,4.31-1.05c0.54,0.99,1.11,1.97,1.73,2.92c1.25,1.75,5.72,1.31,7.47-0.13
			c12.74-10.38,31.42-27.27,44.57-37.2c1.66-1.24,4.05-1.28,5.2-2.97c3.55-5.18,3.67-8.06,4.67-14.25
			C1375.44,545.31,1370.92,541.44,1370.34,537.92z"/>
		<path class="st1" d="M1210.45,590.51c0.01,0.02,0.02,0.03,0.04,0.05c-1.19-2.1-5.8-8.25-11.42-16.04
			C1203.14,580.77,1207.01,586.18,1210.45,590.51z"/>
		<polygon class="st4" points="1351.23,470.72 1362.14,516.27 1355.72,478.42 1357.65,467.51 1341.61,450.19 		"/>
		<path class="st4" d="M991.47,570.91l-28.37,48l18.81-49.01l-18.81-51.71l-28.37-38.34c0,0,34.67,12.05,41.85,24.87
			C983.75,517.54,991.47,570.91,991.47,570.91z"/>
		<polygon class="st4" points="1006.33,431.61 989.55,424.97 951.11,425.56 981.86,430.23 992.61,440.56 1006.33,431.61 		"/>
		<line class="st2" x1="1135.59" y1="161.13" x2="1135.61" y2="161.14"/>
		<path class="st6" d="M1253.84,403.07c1.45,0.55,2.73,0.92,3.72,1.01c-0.47-1.18-0.76-1.82-0.76-1.82
			C1255.83,402.62,1254.84,402.88,1253.84,403.07z"/>
		<g>
			<polygon class="st3" points="1412.2,76.57 1362.63,86.72 1371.25,93.37 1076.4,249.07 1078.69,253.47 1375.75,101.07 
				1376.87,112.75 			"/>
		</g>
		<path class="st4" d="M1218.18,338.57c0.04-2.35,0.42-5.58-0.53-9.37c-3.13-12.51-14.2-16.5-14.2-16.5s0.34-3.63-0.03-7.21
			c-0.24-2.3-0.33-3.27-0.95-6.64c-1.48-8.02-6.48-17.02-6.48-17.02s-4.48,7.9-9.3,12.56c-4.82,4.66-13.62,11.1-13.62,11.1
			s1.06,1.96,2.88,6.74c1.81,4.77,4.56,10.51,4.56,10.51l-17.87,19.74l40.83,7.95l13.36,15.39l37.8,33.57
			c0,0-12.38-27.19-19.73-40.6C1227.55,345.37,1218.18,338.57,1218.18,338.57z"/>
		<g>
			<polygon class="st3" points="1335.56,294.03 1086.32,248.66 1202.06,15.96 1205.63,17.67 1092.26,245.44 1336.07,290.1 			"/>
		</g>
		<path class="st1" d="M1008.93,266.6c-12.32,4.45-59.96,18.9-67.58,40.4l40.3-21.83c14.33-6.07,25.61-11.7,42.22-22.21
			c0.34-0.32,1.45-0.86,3.14-1.56l-18.05,5.12C1008.96,266.55,1008.94,266.57,1008.93,266.6z"/>
		<path class="st7" d="M1093.65,233.07c-4.65,0.26-10.19-0.6-13.82,0.75c-8.31,3.26-14.52,6.14-20.84,8
			c-6.23,1.82-12.17,6.05-15.74,8.02c-0.46,0.27-0.93,0.54-1.39,0.82l-1.18,0.69l-2.25,1.32l-1.32,0.78l-20.76,10.9l2.32,0.71
			c-7.81,5.02-15.72,9.86-25.14,14.1c-4.69,2.13-13.12,3.61-17.83,5.21l-16.17,6.42c-14.49,6.68-18.24,12.1-22.21,20.33
			c-2.85,5.91-4.6,12.73-2.16,17.39c3.15,6.3,9.42,8.18,16.36,9.5c13.79,2.69,31.13-4.12,44.53-14.11
			c12.94-9.71,23.61-24.74,35.34-36.02c1.52-1.42,7.96-7.4,12.5-10.94c5.17-4.03,9.78-6.26,11.7-7.15c2.96-0.8,6.96-0.53,12.96-2.07
			c6.62-1.67,10.84-5.65,17.31-7.9c0.77-0.22,2.74-0.64,3.24,0.76c-2.49-0.01-6.62,2.42-9.29,4.98c-0.21,0.52,1.96,1.53,4.6,1.15
			c4.17-0.83,9.02-2.6,11.03-3.46c3.5-1.4,3.92-5.68,1.92-6.55c2.03-1.31,2.56-5.32-0.03-7.33c1.42-1.47,2.39-5.46,0.23-6.47
			c-1.64-0.8-4.28-0.42-6.22-0.66c2.03-1.31,4.18-2.56,5.99-3.88C1099.15,237.07,1098,232.83,1093.65,233.07z"/>
		<path class="st4" d="M1074.56,249.66l-31.98,7.7l0,0l0,0l-0.29,0.07c0.01,0.02,0.02,0.04,0.03,0.07l-1.23,0.66l-14.74,10.36
			c0,0,0,0,0,0l-10.05,7.06l-0.03,0.02l-51.76,37.56l-17.43,7.7l2.04-11.2c0,0,4.9-9.18,8.66-11.23
			c9.99-5.61,20.59-10.07,31.26-14.35l22.77-11.77l12.63-8.25c-0.01-0.03-0.01-0.05-0.02-0.08l15.41-10.01l3.27-1.38l0,0l32.39-12.4
			L1074.56,249.66z"/>
		<path class="st3" d="M1353.6,149.18c-4.97,1.12-7.05-1.83-7.05-1.83c-2.02-0.95-2.64-4.25-2.64-4.25
			c-1.59-2.28-1.25-4.06-1.25-4.06c-0.36,0.33-1.25,0.82-1.97,1.2c2.91,7.16,5.38,13.76,7.44,19.6l7.63-3.7L1353.6,149.18z"/>
		<path class="st7" d="M1357.56,124.28c1.41,0.77,1.88,4.21,0.57,4.99c2.39-0.03,3.82,4.56,2.5,5.91c2.36,0.65,2.68,4.39,1.32,5.55
			c1.3,0.13,3.16,3.06,1.37,4.53c-3.62,2.97-6.22,4.21-13.67,5.05c-1.24-0.26-1.95-2.07-1.39-3.51c-2.54,1.29-4.32-2.77-2.57-4.15
			c-1.96,0.32-3.54-2.68-1.01-5.28c1.31-1.99,0.27-2.54,0.49-4.99c0.18-1.65-0.4-3.66-0.12-5
			C1347.01,126.02,1355.2,122.5,1357.56,124.28z"/>
		<path class="st2" d="M1328.6,458.35l-35.76-0.01l-9.78,1.12c0.27,3.14,0.52,6.75,0.64,10.28L1328.6,458.35z"/>
	</g>
</g>
</svg>
